<?xml version="1.0" encoding="iso-8859-1"?>
<!-- Generator: Adobe Illustrator 19.0.0, SVG Export Plug-In . SVG Version: 6.00 Build 0)  -->
<svg version="1.1" id="Layer_1" xmlns="http://www.w3.org/2000/svg" xmlns:xlink="http://www.w3.org/1999/xlink" x="0px" y="0px"
	 viewBox="0 0 496 496" style="enable-background:new 0 0 496 496;" xml:space="preserve">
<path style="fill:#0EE0B8;" d="M404,0H92C78.4,0,64,12.8,64,26.4v320L222.4,496H404c13.6,0,28-12.8,28-26.4V26.4
	C432,12.8,417.6,0,404,0z"/>
<path style="fill:#F2C300;" d="M404,0H92C78.4,0,64,12.8,64,26.4v320L222.4,496H404c13.6,0,28-12.8,28-26.4V26.4
	C432,12.8,417.6,0,404,0z"/>
<path style="fill:#EDAF00;" d="M432,384V26.4C432,12.8,417.6,0,404,0H92C78.4,0,66.4,11.2,66.4,24"/>
<path style="fill:#EAA700;" d="M432,384V26.4C432,12.8,417.6,0,404,0H208"/>
<path style="fill:#EDAF00;" d="M200,352v119.2c0,1.6,1.6,3.2,1.6,4.8l19.2,18.4c1.6,0,3.2,1.6,4.8,1.6h125.6l-148-144H200z"/>
<path style="fill:#EAA700;" d="M200,351.2v120c0,1.6,1.6,3.2,1.6,4.8l19.2,18.4c1.6,0,3.2,1.6,4.8,1.6h64l-72.8-120.8L200,351.2z"/>
<path style="fill:#FFFFFF;" d="M222.4,496h1.6V370.4c0-13.6-12-26.4-25.6-26.4L64,345.6L222.4,496z"/>
<polyline style="fill:#FFF7D7;" points="64,345.6 222.4,496 224,496 224,368 "/>
<path style="fill:#F9E385;" d="M80,345.6L80,345.6V26.4C80,12.8,89.6,0,102.4,0H92C78.4,0,64,12.8,64,26.4v320L80,345.6L80,345.6z"
	/>
<g>
	<path style="fill:#FFFFFF;" d="M196.8,236l-15.2,48h-19.2L212,140h22.4L284,284h-20l-15.2-48H196.8z M244.8,220l-14.4-40
		c-3.2-9.6-5.6-16-7.2-24h-0.8c-2.4,8-4.8,15.2-7.2,24l-14.4,40H244.8z"/>
	<path style="fill:#FFFFFF;" d="M284,288L284,288h-20c-1.6,0-3.2-0.8-4-2.4L245.6,240H200l-14.4,44.8c0,2.4-1.6,3.2-3.2,3.2h-19.2
		c-1.6,0-2.4-0.8-3.2-1.6s-0.8-2.4-0.8-4l49.6-144c0.8-1.6,2.4-2.4,4-2.4h22.4c1.6,0,3.2,0.8,4,2.4L288,281.6
		c0.8,0.8,0.8,1.6,0.8,2.4C288,286.4,286.4,288,284,288z M267.2,280h11.2L232,144h-16.8L168,280h11.2l14.4-44.8
		c0.8-1.6,2.4-3.2,4-3.2h51.2c1.6,0,3.2,0.8,4,2.4L267.2,280z M244.8,224h-44c-1.6,0-2.4-0.8-3.2-1.6s-0.8-2.4-0.8-4L212,176
		c2.4-7.2,4.8-13.6,6.4-20.8c0.8-1.6,2.4-3.2,4-3.2h0.8c1.6,0,3.2,1.6,4,3.2c2.4,8,4,14.4,7.2,24l14.4,39.2c0.8,1.6,0,2.4-0.8,4
		C247.2,223.2,245.6,224,244.8,224z M206.4,216h32l-12-34.4c-1.6-4.8-3.2-8.8-4-12c-0.8,3.2-1.6,5.6-2.4,8.8l-0.8,3.2L206.4,216z"/>
	<path style="fill:#FFFFFF;" d="M324.8,148.8c0,6.4-4.8,12-12,12c-6.4,0-11.2-4.8-11.2-12c0-6.4,4.8-12,12-12
		S324.8,141.6,324.8,148.8z M308,284V180h16v104H308z"/>
	<path style="fill:#FFFFFF;" d="M324,288h-16c-2.4,0-4-1.6-4-4V180c0-2.4,1.6-4,4-4h16c2.4,0,4,1.6,4,4v104
		C328,286.4,326.4,288,324,288z M312,280h8v-96h-8V280z M312.8,164c-8.8,0-15.2-6.4-15.2-16c0-8.8,7.2-16,16-16s16,6.4,16,16
		c0,4-1.6,8-4,11.2C322.4,162.4,317.6,164,312.8,164z M313.6,140.8c-4.8,0-8,3.2-8,8s3.2,8,7.2,8c2.4,0,4.8-0.8,6.4-2.4
		c1.6-1.6,1.6-3.2,1.6-4.8C320.8,144,318.4,140.8,313.6,140.8z"/>
</g>
<path style="opacity:0.1;enable-background:new    ;" d="M291.2,304c2.4,0,4-1.6,4-4c0-0.8,0-1.6-0.8-2.4l-48.8-151.2
	c-0.8-1.6-2.4-2.4-4-2.4h-22.4c-1.6,0-3.2,0.8-4,2.4l-49.6,152c0,1.6,0,2.4,0.8,3.2c0.8,0.8,1.6,1.6,3.2,1.6h19.2
	c1.6,0,3.2-0.8,4-3.2l14.4-44.8h45.6l14.4,45.6c0.8,1.6,2.4,2.4,4,2.4h20C291.2,304,291.2,304,291.2,304z M246.4,232h-32.8
	l12.8-38.4c0.8-2.4,1.6-4,1.6-5.6c0.8-1.6,0.8-3.2,1.6-4.8c0.8,1.6,1.6,4,2.4,5.6c0.8,1.6,1.6,3.2,1.6,5.6L246.4,232z"/>
<path style="opacity:0.1;enable-background:new    ;" d="M320,178.4c4.8,0,8.8-1.6,12-4.8c2.4-3.2,4-7.2,4-11.2c0-8.8-6.4-16-16-16
	c-8.8,0-16,7.2-16,16C304.8,172,311.2,178.4,320,178.4z"/>
<path style="opacity:0.1;enable-background:new    ;" d="M308,304h24c2.4,0,4-1.6,4-4V196c0-2.4-1.6-4-4-4h-24c-2.4,0-4,1.6-4,4v104
	C304,302.4,305.6,304,308,304z"/>
<g>
</g>
<g>
</g>
<g>
</g>
<g>
</g>
<g>
</g>
<g>
</g>
<g>
</g>
<g>
</g>
<g>
</g>
<g>
</g>
<g>
</g>
<g>
</g>
<g>
</g>
<g>
</g>
<g>
</g>
</svg>
